<svg width="29" height="33" viewBox="0 0 29 33" fill="none" xmlns="http://www.w3.org/2000/svg">
<path d="M25.0958 10.803L25.3478 11.543C25.0958 10.803 25.096 10.8029 25.0961 10.8029L25.0964 10.8028L25.097 10.8026L25.0982 10.8022L25.1008 10.8013L25.107 10.7993L25.1228 10.7943C25.1348 10.7906 25.1498 10.7861 25.1676 10.7811C25.203 10.7712 25.2501 10.7592 25.3065 10.7475C25.4171 10.7245 25.5743 10.7003 25.7558 10.6996C26.1038 10.6982 26.6665 10.7869 27.0737 11.287L27.2706 11.5288L27.2474 11.8392C27.1577 13.0426 26.7382 14.0739 26.3717 14.7977C26.2173 15.1027 26.0682 15.3604 25.9569 15.5505C26.1291 15.8231 26.2942 16.1291 26.3861 16.4936L25.0958 10.803ZM25.0958 10.803L24.5704 10.9804M25.0958 10.803L24.5704 10.9804M24.5704 10.9804L24.5664 11.5351M24.5704 10.9804L24.5664 11.5351M24.5664 11.5351C24.56 12.4111 24.1987 13.0869 23.8508 13.5463C23.5167 13.3691 23.1866 13.245 22.7884 13.1739L22.7883 13.1739M24.5664 11.5351L22.7883 13.1739M22.7883 13.1739C22.5535 13.132 22.2837 13.1076 22.0292 13.168M22.7883 13.1739L22.0292 13.168M22.0292 13.168C21.7318 13.2386 21.3923 13.4514 21.2845 13.8761M22.0292 13.168L21.2845 13.8761M21.2845 13.8761C21.2015 14.2029 21.3064 14.493 21.3713 14.6415M21.2845 13.8761L21.3713 14.6415M21.3713 14.6415C21.4475 14.8158 21.554 14.9821 21.6574 15.1254M21.3713 14.6415L21.6574 15.1254M21.6574 15.1254C22.021 15.6294 22.6182 16.2118 22.9234 16.5093M21.6574 15.1254L22.9234 16.5093M22.9234 16.5093C22.9546 16.5398 22.9829 16.5673 23.0074 16.5915M22.9234 16.5093L23.0074 16.5915M23.0074 16.5915C23.3549 16.9328 24.0138 17.4254 24.5823 17.6958M23.0074 16.5915L24.5823 17.6958M24.5823 17.6958C24.7295 17.7658 24.8939 17.8322 25.0618 17.8743M24.5823 17.6958L25.0618 17.8743M25.0618 17.8743C25.2146 17.9126 25.4541 17.9528 25.7093 17.8845M25.0618 17.8743L25.7093 17.8845M25.7093 17.8845C26.0234 17.8003 26.2841 17.5697 26.3898 17.2311M25.7093 17.8845L26.3898 17.2311M26.3898 17.2311C26.4753 16.9571 26.4351 16.6879 26.3862 16.4938L26.3898 17.2311ZM25.7885 15.8446C25.7874 15.8471 25.7868 15.8485 25.7867 15.8485C25.7867 15.8485 25.7873 15.8473 25.7885 15.8446Z" fill="#15803D" stroke="#161622" stroke-width="1.5625"/>
<path d="M18.9701 13.6449L18.9695 13.6454C18.2628 14.2081 17.6875 14.9508 17.1682 15.7561C16.7445 16.4132 16.3349 17.15 15.9174 17.9011C15.8254 18.0666 15.733 18.2328 15.6399 18.399C14.5947 20.2666 13.4098 22.2447 11.5442 23.9253L11.544 23.9255C9.79963 25.498 8.19573 26.3567 6.98176 26.9984C6.95216 27.014 6.92262 27.0297 6.89314 27.0452C6.33732 27.3388 5.80622 27.6193 5.4164 27.912C5.00119 28.2237 4.56958 28.6786 4.54892 29.359C4.53705 29.7271 4.62175 30.1162 4.86623 30.4659C5.10784 30.8116 5.46158 31.0562 5.88064 31.2179C6.68837 31.5297 7.86799 31.5845 9.48211 31.3812L9.48252 31.3812C13.7722 30.8388 18.8767 28.855 21.788 25.8658C23.4026 24.2085 24.694 22.8799 25.525 21.7294C26.3604 20.5729 26.8467 19.4412 26.5998 18.2036L26.4993 17.6999L25.9971 17.591C24.7811 17.3272 23.6435 16.5329 22.8602 15.6594C22.4712 15.2255 22.1964 14.8014 22.047 14.4568C21.9017 14.1215 21.9259 13.9861 21.922 13.9853C21.9216 13.9852 21.921 13.9863 21.92 13.9885L22.3448 13.0302L21.295 12.902C21.1126 12.8797 20.9222 12.8742 20.7255 12.8912C20.1303 12.9428 19.5431 13.1897 18.9701 13.6449Z" fill="#B91C1C" stroke="#161622" stroke-width="1.5625"/>
<path d="M10.4427 5.71245L10.4427 5.7121L10.4427 5.71202L10.4427 5.7117L10.4427 5.71139L10.4626 3.00814L8.68773 5.04531C6.68431 7.34476 5.77651 10.168 5.61364 12.7256C5.57099 12.6176 5.5352 12.5193 5.50589 12.4341C5.46879 12.3262 5.44257 12.2408 5.42627 12.1849C5.41813 12.157 5.41251 12.1366 5.40928 12.1246L5.40622 12.1131L5.40621 12.113C5.406 12.1122 5.40593 12.1119 5.406 12.1122L4.94173 10.2506L3.68141 11.6971C2.58112 12.96 1.89018 14.5149 1.48901 15.9453C1.08906 17.3713 0.95485 18.7538 1.02965 19.7236C1.23462 22.3811 2.75458 24.6134 4.59832 26.2363L5.10947 26.6862L5.71482 26.3772C6.8925 25.7759 8.3555 24.6777 9.85052 23.3612L11.2756 22.1062L9.43123 21.6409C8.51205 21.409 7.91366 20.9693 7.56659 20.483C8.43746 20.6807 9.85421 20.7935 10.8021 19.7056L11.1782 19.2739L10.995 18.7305C10.7356 17.9612 10.5186 17.0915 10.4722 16.2566C10.4635 16.1 10.461 15.9475 10.4648 15.7993C10.5643 15.8789 10.6709 15.9539 10.7844 16.021C11.1889 16.2599 11.7387 16.4259 12.3517 16.251C13.1449 16.0259 13.5278 15.3722 13.6516 14.7377C13.6532 14.7298 13.6547 14.7218 13.6562 14.7138C13.799 14.8314 13.9376 14.9636 14.0647 15.1112L14.8817 16.0602L15.6261 15.0566C16.2885 14.1635 17.0378 13.439 17.9739 12.9473L18.4088 12.7188L18.4927 12.2346L18.5398 11.963L18.5611 11.8401L18.5515 11.7156C18.3738 9.41249 16.9428 7.99944 15.6738 7.20192C15.038 6.80239 14.4188 6.53964 13.9611 6.3765C13.7308 6.29443 13.5377 6.23624 13.3987 6.19781C13.3291 6.17857 13.2727 6.1642 13.2318 6.15421C13.2114 6.14921 13.1947 6.1453 13.1822 6.14242L13.1664 6.13886L13.1609 6.13764L13.1587 6.13717L13.1578 6.13696C13.1574 6.13687 13.157 6.13678 12.9479 7.11408L13.157 6.13678L11.6347 5.80823L11.9711 7.32666L11.9711 7.32687L11.9713 7.32741L11.9713 7.32779L11.9714 7.32824L11.9717 7.32961L11.9756 7.34852C11.9794 7.36671 11.9851 7.39571 11.9921 7.43396C12.0062 7.5107 12.0251 7.62338 12.0432 7.75994C12.0802 8.03832 12.1102 8.39175 12.096 8.73301C12.081 9.09298 12.02 9.33994 11.9489 9.47191C11.9133 9.53807 11.9065 9.53833 11.8763 9.5395C11.8719 9.53967 11.8669 9.53986 11.8614 9.54028C11.6255 9.55795 11.4539 9.48241 11.2627 9.24156C11.0397 8.96062 10.8506 8.51083 10.711 7.95139C10.5756 7.40848 10.5072 6.84634 10.4735 6.41026C10.4569 6.19467 10.4492 6.01542 10.4457 5.89191C10.4439 5.83026 10.4432 5.78282 10.4429 5.75202L10.4427 5.71873L10.4427 5.71245Z" fill="#DC2626" stroke="#161622" stroke-width="2"/>
<path d="M25.7611 11.4806C25.5298 11.4815 25.3478 11.543 25.3478 11.543C25.3366 13.0928 24.4377 14.1187 24.0102 14.5524C23.4784 14.2035 23.1255 14.0271 22.6531 13.9428C21.0634 13.6591 22.9764 15.4678 23.5544 16.0352C24.1414 16.6118 25.9081 17.7908 25.6284 16.6826C25.5318 16.2992 25.3263 16.0085 25.0578 15.6049C24.9794 15.4873 26.3099 13.9007 26.4681 11.779C26.2727 11.539 25.9925 11.4797 25.7611 11.4806Z" fill="#15803D"/>
<path d="M20.7952 13.6693C20.3784 13.7054 19.9326 13.8794 19.4575 14.2568C17.0141 16.2022 16.0032 20.9615 12.0683 24.5061C8.42974 27.7864 5.36726 28.0869 5.32999 29.3864C5.30041 30.3036 6.22325 31.0041 9.38226 30.6063C13.5618 30.0778 18.4781 28.143 21.2273 25.3202C24.4888 21.9725 26.2002 20.1923 25.8334 18.3542C22.9963 17.7387 20.7356 14.73 21.2023 13.6772C21.0699 13.661 20.9341 13.6573 20.7952 13.6693Z" fill="#B91C1C"/>
<path d="M9.44255 5.70291C6.71228 8.83662 6.18892 13.0603 6.83567 15.941C5.05089 14.8194 4.43623 12.3547 4.43623 12.3547C2.48604 14.5931 1.8985 17.9847 2.02685 19.6489C2.20527 21.9621 3.5366 23.971 5.25835 25.4865C6.32448 24.9422 7.71351 23.9092 9.18847 22.6103C6.98887 22.0554 5.96372 20.3791 6.21604 18.9166C6.21604 18.9166 8.87716 20.391 10.0473 19.048C9.49679 17.4154 9.06633 15.1922 10.0522 13.6078C10.0522 13.6078 10.9668 15.6067 12.0759 15.2893C12.7199 15.1072 12.857 14.2471 12.5529 13.002C12.5529 13.002 13.8848 13.3711 14.8222 14.46C15.5452 13.4852 16.4014 12.6427 17.5072 12.0619L17.5543 11.7903C17.2655 8.04595 12.9479 7.11408 12.9479 7.11408C12.9479 7.11408 13.6774 10.407 11.9383 10.5373C9.40549 10.7271 9.44255 5.70291 9.44255 5.70291Z" fill="#DC2626"/>
<ellipse cx="12.4004" cy="20.2998" rx="7.5" ry="7.49997" fill="#161622"/>
<path d="M12.16 24V17.712L10.552 18.672V17.04L13.012 15.6H13.672V24H12.16Z" fill="#16A34A"/>
</svg>
