<svg id="b" data-name="Layer 2" xmlns="http://www.w3.org/2000/svg" width="298.144mm" height="75.651mm" viewBox="0 0 845.131 214.443">
  <g id="c" data-name="Layer 1">
    <g>
      <polygon points="383.007 120.224 383.007 120.224 383.007 120.224 383.007 120.224" fill="#4ab9eb"/>
      <path d="m323.154,188.331c2.046-.677,3.644-1.767,4.75-3.244l38.227-51.078-65.293,21.614c-13.805,4.566-32.826-3.294-43.302-17.908l-60.013-83.683c-2.362-3.293-4.098-6.719-5.196-10.12l-40.004,53.451c-3.249,4.34-2.136,11.624,2.836,18.557l60.01,83.684c7.688,10.717,22.093,17.159,31.467,14.059l76.518-25.332Z" fill="#4ab9eb"/>
    </g>
    <path d="m203.223,29.352h-.001s-.004.005-.004.005c-3.243,4.34-2.13,11.621,2.839,18.553l10.971,15.298,13.251-4.386c2.657-.88,5.503-1.299,8.448-1.299,12.361,0,26.397,7.397,34.857,19.196l44.545,62.116,55.926-18.514c2.039-.675,3.629-1.76,4.732-3.223l.015-.02c3.249-4.34,2.134-11.628-2.841-18.566l-60.01-83.683c-7.688-10.716-22.119-17.15-31.467-14.047l-76.52,25.331c-2.044.677-3.639,1.767-4.739,3.238h0s0,.001,0,.001Z" fill="#1584b2"/>
    <path d="m0,185.082V34.215c0-2.586,2.097-4.683,4.683-4.683h92.608c33.153,0,47.566,22.101,47.566,40.839,0,19.939-11.771,33.393-27.385,36.755,17.296,2.644,30.508,18.499,30.508,39.157,0,22.342-15.133,43.482-47.325,43.482H4.683c-2.586,0-4.683-2.097-4.683-4.683Zm48.526-97.499c0,.843.683,1.527,1.527,1.527h35.948c5.046,0,9.611-4.565,9.611-10.331,0-5.525-4.565-9.848-9.611-9.848h-35.948c-.843,0-1.527.683-1.527,1.527v17.126Zm0,61.257c0,.843.683,1.527,1.527,1.527h37.391c6.967,0,11.291-4.804,11.291-10.81,0-5.766-4.323-11.051-11.291-11.051h-37.391c-.843,0-1.527.683-1.527,1.527v18.808Z" fill="#f1f1f1"/>
    <path d="m471.741,186.318l-26.635-44.537c-.593-.991-2.028-.991-2.62,0l-26.635,44.537c-.845,1.414-2.372,2.279-4.019,2.279h-45.874c-3.718,0-5.954-4.126-3.923-7.24l48.849-74.918-45.354-70.867c-1.995-3.117.244-7.207,3.944-7.207h45.652c1.684,0,3.239.904,4.071,2.369l23.259,40.918c.588,1.034,2.081,1.028,2.66-.011l22.804-40.874c.827-1.483,2.392-2.401,4.089-2.401h46.094c3.703,0,5.941,4.096,3.941,7.212l-45.336,70.622,48.866,75.162c2.025,3.115-.21,7.235-3.926,7.235h-45.887c-1.647,0-3.173-.866-4.019-2.279Z" fill="#f1f1f1"/>
    <path d="m542.436,183.915V33.048c0-2.586,2.097-4.683,4.683-4.683h112.189c2.586,0,4.683,2.097,4.683,4.683v30.992c0,2.586-2.097,4.683-4.683,4.683h-66.819c-.843,0-1.527.683-1.527,1.527v15.685c0,.843.683,1.527,1.527,1.527h65.139c2.586,0,4.683,2.097,4.683,4.683v30.992c0,2.586-2.097,4.683-4.683,4.683h-65.139c-.843,0-1.527.683-1.527,1.527v17.367c0,.843.683,1.527,1.527,1.527h66.819c2.586,0,4.683,2.097,4.683,4.683v30.992c0,2.586-2.097,4.683-4.683,4.683h-112.189c-2.586,0-4.683-2.097-4.683-4.683Z" fill="#f1f1f1"/>
    <path d="m685.62,183.915V33.048c0-2.586,2.097-4.683,4.683-4.683h66.905c50.447,0,87.924,28.828,87.924,79.995s-37.477,80.237-87.685,80.237h-67.144c-2.586,0-4.683-2.097-4.683-4.683Zm48.526-39.125c0,.843.683,1.527,1.527,1.527h21.535c24.263,0,38.676-17.777,38.676-37.956,0-21.619-12.492-37.714-38.436-37.714h-21.775c-.843,0-1.527.683-1.527,1.527v72.617Z" fill="#f1f1f1"/>
  </g>
</svg>